<svg width="47" height="26" viewBox="0 0 47 26" fill="none" xmlns="http://www.w3.org/2000/svg">
<path d="M30.2485 7.76387L31.7412 2.6062H34.057L30.8091 12.1858L30.6297 12.6226C30.146 13.7067 29.3485 14.2489 28.2402 14.2489C27.9262 14.2489 27.6061 14.1995 27.2825 14.1042V12.4256L27.6123 12.4322C28.0224 12.4322 28.3267 12.3696 28.5286 12.2416C28.7303 12.1135 28.8872 11.9031 29.0025 11.6042L29.2556 10.921L26.4241 2.6062H28.7463L30.2485 7.76387Z" fill="#FF8A00"/>
<path d="M9.69836 6.99291C9.69836 7.836 9.85628 8.59137 10.1752 9.25241C10.4909 9.91346 10.9479 10.426 11.543 10.7868C12.1383 11.1477 12.8287 11.3299 13.618 11.3299C14.7391 11.3299 15.6533 10.9791 16.3602 10.2743C17.0672 9.57273 17.465 8.61836 17.544 7.411L17.5604 6.82765C17.5604 5.52251 17.2052 4.47366 16.495 3.68439C15.7847 2.89528 14.8313 2.50073 13.6343 2.50073C12.4374 2.50073 11.484 2.89528 10.7704 3.6811C10.0569 4.46691 9.70173 5.5393 9.70173 6.89168V6.99291H9.69836ZM11.9179 6.82765C11.9179 6.02159 12.0659 5.40103 12.3618 4.97619C12.6578 4.5479 13.0819 4.3354 13.6343 4.3354C14.1704 4.3354 14.5912 4.5479 14.8937 4.96945C15.1962 5.39099 15.3475 6.06537 15.3475 6.9962C15.3475 7.78876 15.1962 8.40257 14.8937 8.83761C14.5912 9.2692 14.167 9.48845 13.618 9.48845C13.0754 9.48845 12.6578 9.27266 12.3586 8.83761C12.0659 8.40586 11.9179 7.73478 11.9179 6.82765Z" fill="#FF8A00"/>
<path d="M25.7213 11.3661H23.4398V8.61718C23.0141 8.69685 22.6186 8.73849 22.2501 8.73849C20.9626 8.73849 19.9924 8.45768 19.3402 7.89622C18.6878 7.33459 18.3565 6.51652 18.3464 5.43836V2.61674H20.6246V5.43836C20.6313 5.94452 20.7496 6.30846 20.9861 6.52689C21.2261 6.74531 21.6453 6.8528 22.2501 6.8528C22.6287 6.8528 23.0242 6.8077 23.4398 6.71404V2.61328H25.718V11.3661H25.7213Z" fill="#FF8A00"/>
<path d="M4.58272 3.75197L6.57276 0H9.08744L5.9979 5.39569L9.16864 10.8809H6.62267L4.58272 7.07135L2.54276 10.8842H0L3.17075 5.39569L0.0812076 0H2.59588L4.58272 3.75197Z" fill="#FF8A00"/>
<path d="M38.5703 11.2571V2.4314H42.1636C43.3365 2.4314 44.2331 2.64472 44.8603 3.06775C45.4877 3.49095 45.7979 4.09932 45.7979 4.89303C45.7979 5.30224 45.665 5.66584 45.4058 5.9911C45.1399 6.31619 44.7581 6.56458 44.2535 6.73939C44.8672 6.85823 45.3513 7.09592 45.7059 7.4457C46.0605 7.79531 46.2343 8.22888 46.2343 8.73948C46.2343 9.56118 45.9343 10.187 45.3309 10.6171C44.7308 11.0472 43.8547 11.2605 42.7091 11.2605H38.5703V11.2571ZM40.8682 7.59598V9.37238H42.7194C43.5307 9.37238 43.9364 9.08218 43.9364 8.49817C43.9364 7.90724 43.5512 7.60651 42.7774 7.59598H40.8682ZM40.8682 6.01201H42.2932C43.0978 6.00147 43.5036 5.7358 43.5036 5.21121C43.5036 4.88958 43.3944 4.66226 43.1728 4.52597C42.9512 4.39313 42.6137 4.32318 42.1636 4.32318H40.8682V6.01201Z" fill="#FF8A00"/>
<path d="M15.5697 16.3172H10.8324V18.4261H12.5386C13.7885 18.4261 14.776 18.7369 15.5073 19.3555C16.2385 19.9773 16.6041 20.8105 16.6041 21.865C16.6041 22.9226 16.2415 23.7688 15.5134 24.4098C14.7885 25.0507 13.823 25.3745 12.6168 25.384H8.62317V14.5H15.5697V16.3172ZM10.8324 20.2336V23.583H12.5762C13.1355 23.583 13.5792 23.4258 13.9135 23.1117C14.248 22.7976 14.4136 22.3777 14.4136 21.849C14.4136 21.3554 14.2542 20.9645 13.9355 20.6792C13.6168 20.3939 13.1793 20.2433 12.6261 20.2336H10.8324Z" fill="#FF8A00"/>
<path d="M33.407 16.709H31.1012V20.1021H28.2431V16.709H25.9445V25.5381H28.2431V21.9982H31.0979V25.5381H33.407V16.709Z" fill="#FF8A00"/>
<path d="M22.5957 25.3523C22.4936 25.1467 22.418 24.8937 22.372 24.5902C21.8361 25.204 21.1389 25.5108 20.2774 25.5108C19.4652 25.5108 18.7911 25.2715 18.2553 24.7857C17.7192 24.3034 17.453 23.6931 17.453 22.9613C17.453 22.0574 17.7785 21.3661 18.4296 20.8838C19.0871 20.4015 20.0276 20.1587 21.2606 20.152H22.28V19.6629C22.28 19.2684 22.1813 18.9548 21.9841 18.7188C21.7867 18.4826 21.4776 18.3645 21.0534 18.3645C20.6786 18.3645 20.3859 18.4556 20.1755 18.6411C19.9651 18.8233 19.8566 19.0761 19.8566 19.3966H17.6403C17.6403 18.9041 17.7883 18.4455 18.0842 18.0273C18.3801 17.6092 18.8011 17.2787 19.3435 17.0392C19.8862 16.7998 20.4944 16.6816 21.1685 16.6816C22.1911 16.6816 23.0033 16.9448 23.605 17.4742C24.2068 18.0003 24.506 18.7423 24.506 19.6967V23.3863C24.5125 24.1922 24.621 24.806 24.8348 25.2175V25.3523H22.5957ZM20.7608 23.7706C21.0863 23.7706 21.3888 23.6965 21.665 23.5481C21.9412 23.3998 22.1452 23.1973 22.28 22.9478V21.4808H21.4514C20.3432 21.4808 19.7513 21.8754 19.679 22.6612L19.6724 22.796C19.6724 23.0793 19.7711 23.312 19.9651 23.4975C20.1591 23.6796 20.4254 23.7706 20.7608 23.7706Z" fill="#FF8A00"/>
<path d="M37.11 22.0709H38.3069C38.4712 23.1297 38.8922 23.9661 39.576 24.5766C40.26 25.187 41.1182 25.4939 42.1573 25.4939C43.2785 25.4939 44.1926 25.1432 44.8996 24.4383C45.6065 23.7368 46.0044 22.7824 46.0833 21.5751L46.0997 20.9915C46.0997 19.6864 45.7447 18.6376 45.0344 17.8485C44.3242 17.0593 43.3706 16.6648 42.1737 16.6648C41.0952 16.6648 40.2108 16.9851 39.5234 17.6259C38.8362 18.2667 38.422 19.1333 38.2838 20.2294H37.11V16.8233H34.8872V25.3354H37.11V22.0709ZM40.4541 20.9915C40.4541 20.1857 40.602 19.5651 40.898 19.1401C41.1939 18.7118 41.6181 18.4993 42.1705 18.4993C42.7163 18.4993 43.1405 18.7118 43.4364 19.1368C43.7323 19.5616 43.8803 20.2362 43.8803 21.1603C43.8803 21.9528 43.729 22.5665 43.4265 23.0015C43.1239 23.4366 42.6998 23.6558 42.1539 23.6558C41.6115 23.6558 41.1939 23.44 40.8946 23.005C40.602 22.5699 40.4541 21.8988 40.4541 20.9915Z" fill="#FF8A00"/>
</svg>
